<svg id="Layer_1" enable-background="new 0 0 24 24" viewBox="0 0 24 24" xmlns="http://www.w3.org/2000/svg" xmlns:xlink="http://www.w3.org/1999/xlink"><linearGradient id="lg1"><stop offset="0" stop-color="#321776"/><stop offset="1" stop-color="#6741ca"/></linearGradient><linearGradient id="SVGID_1_" gradientTransform="matrix(1 0 0 -1 0 54)" gradientUnits="userSpaceOnUse" x1="12" x2="12" xlink:href="#lg1" y1="33.818" y2="50.182"/><linearGradient id="SVGID_2_" gradientTransform="matrix(1 0 0 -1 0 54)" gradientUnits="userSpaceOnUse" x1="12" x2="12" xlink:href="#lg1" y1="37.909" y2="46.091"/><linearGradient id="SVGID_3_" gradientUnits="userSpaceOnUse" x1="12" x2="12" y1="22" y2="2"><stop offset="0" stop-color="#ff7169"/><stop offset="1" stop-color="#ffa19c"/></linearGradient><g><g><path d="m12 3.8180988c-4.5105953 0-8.1826801 3.6726668-8.1826801 8.181901s3.6720848 8.1819021 8.1826801 8.1819021 8.1826801-3.6726684 8.1826801-8.1819019-3.6720848-8.1819012-8.1826801-8.1819012zm0 14.5457032c-3.5099831 0-6.3653593-2.8547812-6.3653593-6.363802s2.8553762-6.3638024 6.3653593-6.3638024 6.3653584 2.8547816 6.3653584 6.3638024-2.8553753 6.363802-6.3653584 6.363802z" fill="url(#SVGID_1_)"/><path d="m12 16.09095c2.2599783 0 4.0897789-1.8314915 4.0897789-4.09095s-1.8298006-4.0909505-4.0897789-4.0909505-4.0897799 1.831492-4.0897799 4.0909505 1.8298016 4.09095 4.0897799 4.09095z" fill="url(#SVGID_2_)"/></g><g><g fill="#ffa19c"><path d="m12 7.4546008c-.5018663 0-.9102392-.407383-.9102392-.9092016v-3.636502c0-.5018187.4083729-.9088972.9102392-.9088972s.9102392.4070785.9102392.9088972v3.636502c0 .5018186-.4083729.9092016-.9102392.9092016z"/><path d="m12 22c-.5018663 0-.9102392-.4070778-.9102392-.9088974v-3.6365013c0-.5018196.4083729-.9092026.9102392-.9092026s.9102392.407383.9102392.9092026v3.6365013c0 .5018196-.4083729.9088974-.9102392.9088974z"/><path d="m21.0929184 12.9092016h-3.6377983c-.5018673 0-.9102402-.407383-.9102402-.9092016s.4083729-.9092016.9102402-.9092016h3.6377983c.5018673 0 .9070816.4073829.9070816.9092016s-.4052143.9092016-.9070816.9092016z"/><path d="m6.5448804 12.9092016h-3.6377993c-.5018666 0-.9070811-.4073829-.9070811-.9092016s.4052145-.9092016.9070811-.9092016h3.6377993c.5018663 0 .9102392.407383.9102392.9092016s-.4083729.9092016-.9102392.9092016z"/></g><g fill="url(#SVGID_3_)"><path d="m12 7.4546008c-.5018663 0-.9102392-.407383-.9102392-.9092016v-3.636502c0-.5018187.4083729-.9088972.9102392-.9088972s.9102392.4070785.9102392.9088972v3.636502c0 .5018186-.4083729.9092016-.9102392.9092016z"/><path d="m12 22c-.5018663 0-.9102392-.4070778-.9102392-.9088974v-3.6365013c0-.5018196.4083729-.9092026.9102392-.9092026s.9102392.407383.9102392.9092026v3.6365013c0 .5018196-.4083729.9088974-.9102392.9088974z"/><path d="m21.0929184 12.9092016h-3.6377983c-.5018673 0-.9102402-.407383-.9102402-.9092016s.4083729-.9092016.9102402-.9092016h3.6377983c.5018673 0 .9070816.4073829.9070816.9092016s-.4052143.9092016-.9070816.9092016z"/><path d="m6.5448804 12.9092016h-3.6377993c-.5018666 0-.9070811-.4073829-.9070811-.9092016s.4052145-.9092016.9070811-.9092016h3.6377993c.5018663 0 .9102392.407383.9102392.9092016s-.4083729.9092016-.9102392.9092016z"/></g></g></g></svg>