<svg id="Layer_1" enable-background="new 0 0 100 100" height="512" viewBox="0 0 100 100" width="512" xmlns="http://www.w3.org/2000/svg"><switch><g><g><g><path d="m77.2 46.5c1.1.1 2.2.4 3.3.9-2.9-7.2-8.2-13.1-14.9-16.7.5 1.2.9 2.4 1.1 3.7 4.5 3 8.2 7.2 10.5 12.1z"/><path d="m50 89.8c-4.8 0-9.3-1.1-13.3-3.1h-5.2c5.3 3.6 11.6 5.7 18.5 5.7s13.3-2.1 18.5-5.7h-5.2c-4 1.9-8.5 3.1-13.3 3.1z"/><path d="m33.3 34.4c.2-1.3.6-2.6 1.2-3.8-6.7 3.6-12.1 9.5-14.9 16.7 1-.4 2.1-.7 3.3-.9 2.2-4.8 5.9-9 10.4-12z"/><path d="m37.4 60c0 7 5.7 12.6 12.6 12.6s12.6-5.6 12.6-12.6-5.7-12.6-12.6-12.6-12.6 5.7-12.6 12.6zm22.6 0c0 5.5-4.5 10-10 10s-10-4.5-10-10 4.5-10 10-10 10 4.5 10 10z"/><path d="m46.3 59.6c-.5-.5-1.3-.5-1.9 0-.5.5-.5 1.3 0 1.9l3.1 3.1c.2.2.6.4.9.4s.7-.1.9-.4l6.1-6.1c.5-.5.5-1.3 0-1.9-.5-.5-1.3-.5-1.9 0l-5.2 5.2z"/><path d="m37 42.6h26c.7 0 1.3-.6 1.3-1.3v-3.8c0-6.1-3.8-11.3-9.2-13.4 2.4-1.6 3.9-4.4 3.9-7.4 0-5-4.1-9-9-9s-9 4.1-9 9c0 3.1 1.5 5.8 3.9 7.4-5.4 2.1-9.2 7.3-9.2 13.4v3.8c0 .7.5 1.3 1.3 1.3zm6.6-25.9c0-3.5 2.9-6.4 6.4-6.4s6.4 2.9 6.4 6.4-2.9 6.4-6.4 6.4-6.4-2.9-6.4-6.4zm-5.3 20.8c0-6.5 5.3-11.7 11.7-11.7s11.7 5.2 11.7 11.7v2.5h-3.1v-4c0-.7-.6-1.3-1.3-1.3s-1.3.6-1.3 1.3v3.9h-12v-3.9c0-.7-.6-1.3-1.3-1.3s-1.3.6-1.3 1.3v3.9h-3.1z"/><path d="m81.1 65.5c2.4-1.6 3.9-4.4 3.9-7.4 0-5-4.1-9-9-9-5 0-9 4.1-9 9 0 3.1 1.5 5.8 3.9 7.4-5.4 2.1-9.2 7.3-9.2 13.4v3.8c0 .7.6 1.3 1.3 1.3h26.1c.7 0 1.3-.6 1.3-1.3v-3.8c-.1-6.1-4-11.3-9.3-13.4zm-11.6-7.4c0-3.5 2.9-6.4 6.4-6.4s6.4 2.9 6.4 6.4-2.9 6.4-6.4 6.4-6.4-2.8-6.4-6.4zm18.1 23.3h-3.1v-3.9c0-.7-.6-1.3-1.3-1.3s-1.3.6-1.3 1.3v3.9h-11.9v-3.9c0-.7-.6-1.3-1.3-1.3s-1.3.6-1.3 1.3v3.9h-3.1v-2.5c0-6.5 5.3-11.7 11.7-11.7 6.5 0 11.7 5.3 11.7 11.7v2.5z"/><path d="m38.4 82.7v-3.8c0-6.1-3.8-11.3-9.2-13.4 2.4-1.6 3.9-4.4 3.9-7.4 0-5-4.1-9-9-9-5 0-9 4.1-9 9 0 3.1 1.5 5.8 3.9 7.4-5.4 2.1-9.2 7.3-9.2 13.4v3.8c0 .7.6 1.3 1.3 1.3h26.1c.6 0 1.2-.6 1.2-1.3zm-20.7-24.6c0-3.5 2.9-6.4 6.4-6.4s6.4 2.9 6.4 6.4-2.9 6.4-6.4 6.4-6.4-2.8-6.4-6.4zm18.1 23.3h-3.1v-3.9c0-.7-.6-1.3-1.3-1.3s-1.3.6-1.3 1.3v3.9h-12v-3.9c0-.7-.6-1.3-1.3-1.3s-1.3.6-1.3 1.3v3.9h-3.1v-2.5c0-6.5 5.3-11.7 11.7-11.7 6.5 0 11.7 5.3 11.7 11.7z"/></g></g></g></switch></svg>