<?xml version="1.0" encoding="UTF-8"?>
<svg id="logosandtypes_com" data-name="logosandtypes com" xmlns="http://www.w3.org/2000/svg" viewBox="0 0 150 150">
  <defs>
    <style>
      .cls-1 {
        fill: #dd2109;
      }

      .cls-1, .cls-2 {
        fill-rule: evenodd;
      }

      .cls-2 {
        fill: #200d5e;
      }

      .cls-3 {
        fill: none;
      }
    </style>
  </defs>
  <path class="cls-3" d="M0,0H150V150H0V0Z"/>
  <path id="path2" class="cls-1" d="M12,112.44c17.77-32.29,78.61-12.76,109.28-30.38,11.4-6.55,16.03-14.11,11.63-30.53-7.81,33.36-79.18,17.94-108.83,31.17-10.74,4.79-19.71,20.12-12.08,29.74Z"/>
  <path id="path3" class="cls-2" d="M132.54,36.02l7.62-18.48-51.71-.02c-44.82,1.02-64.2,45.33-20.79,45.33h26.71c14.54,0,18.1,1.29,18.58,3.61,17.48-7.32,23.63-21.75-1.67-21.75h-22.51l-1.1,.69,1.76,14.22-10.3-8.82-13.88,8.82,7.55-14.22-10.34-8.77,14.96,.03,7.49-14.24,1.62,13.6h46.01Z"/>
  <path id="path4" class="cls-1" d="M18.05,139.75c17.13-32.29,75.77-12.76,105.33-30.38,10.99-6.55,15.45-14.11,11.21-30.53-7.53,33.36-76.32,17.94-104.9,31.17-10.35,4.79-18.99,20.12-11.64,29.74Z"/>
</svg>