<?xml version="1.0" encoding="UTF-8"?>
<svg id="Layer_5" xmlns="http://www.w3.org/2000/svg" viewBox="0 0 956.47 962.96">
  <defs>
    <style>
      .cls-1 {
        fill: #e6e7e7;
      }

      .cls-2 {
        fill: #fff;
      }

      .cls-3 {
        fill: none;
      }

      .cls-4 {
        fill: #eb3f3d;
      }

      .cls-5 {
        fill: #1e3965;
      }
    </style>
  </defs>
  <path class="cls-3" d="M201.62,932.53c25.08-2.92,48.94-10.31,71.28-23.25,13.09-5.89,25.01-13.56,35.94-22.52-10.92,8.96-22.84,16.63-35.95,22.52-22.32,12.94-46.18,20.33-71.26,23.25Z"/>
  <path class="cls-3" d="M239.63,39.52c-23.55-8.3-48.2-11.72-74.1-9.82-19.55,1.01-37.98,5.58-55.25,13.74,17.27-8.16,35.69-12.73,55.26-13.74,25.88-1.9,50.53,1.52,74.08,9.82Z"/>
  <path class="cls-3" d="M695.83,906.59c29.18,13.84,60.05,20.17,92.96,17.44,21.09-.94,40.77-6.24,59.12-15.73-18.34,9.49-38.02,14.79-59.12,15.73-32.92,2.74-63.79-3.6-92.96-17.44Z"/>
  <path class="cls-3" d="M48.39,707.44c-12.92,28.28-18.56,58.21-16.26,89.97,1.18,22.81,7.22,44.09,18.14,63.8-10.92-19.71-16.96-40.99-18.14-63.8-2.3-31.76,3.34-61.7,16.26-89.97Z"/>
  <path class="cls-3" d="M249.2,43.21c2.12.88,4.22,1.78,6.31,2.74-2.09-.95-4.19-1.86-6.31-2.74Z"/>
  <path class="cls-2" d="M750.46,431.3l7.63,7.62c36.34-36.38,72.72-72.76,109.06-109.16,14.59-14.61,26.99-31.15,35.5-50.25-16.59,16.45-33.24,32.87-49.78,49.38-34.16,34.11-68.33,68.22-102.41,102.42Z"/>
  <path class="cls-2" d="M677.63,71.15c2.65-2.66,5.12-5.47,7.69-8.21-1.24.45-2.54.82-3.7,1.44-25.21,13.4-45.68,32.68-65.63,52.68-29.06,29.18-58.18,58.32-87.32,87.44l7.77,7.79c47.14-46.98,94.15-94.08,141.19-141.14Z"/>
  <path class="cls-2" d="M639.59,366.17c15.79,15.79,31.59,31.58,47.38,47.37,79.84-79.8,159.67-159.6,239.5-239.37-1.16-25.96-8.92-49.8-22.97-71.61-23.97,23.87-47.96,47.74-71.89,71.64-64.01,64-128.01,127.99-192.02,191.97Z"/>
  <path class="cls-2" d="M214.81,533.9l-7.78-7.79c-38.93,39.09-77.79,78.23-116.55,117.5-13.99,14.18-25.72,30.11-34.15,48.29,2.75-2.55,5.58-5.04,8.24-7.69,50.11-50.08,100.24-100.14,150.25-150.32Z"/>
  <path class="cls-2" d="M598.79,326.12c85.41-85.41,170.84-170.83,256.25-256.27,2.65-2.66,5.24-5.39,7.86-8.07-22.04-13.94-46.02-21.78-72.09-23-79.86,79.88-159.73,159.74-239.5,239.74,15.82,15.88,31.63,31.75,47.48,47.6ZM743.71,142.56c1.11,1.1,1.1,2.94-.04,4.09-1.17,1.07-3,1.07-4.12-.06-1.16-1.13-1.11-3.02.06-4.09,1.12-1.1,2.95-1.1,4.11.05Z"/>
  <path class="cls-2" d="M278.36,551.47c-54.59,54.38-109.02,108.89-163.5,163.37-27.56,27.55-55.15,55.05-82.73,82.58,1.18,22.81,7.22,44.09,18.14,63.8,1.55,2.81,3.21,5.6,4.97,8.35,90.22-90.18,180.44-180.37,270.68-270.55-15.86-15.84-31.71-31.69-47.55-47.55Z"/>
  <path class="cls-2" d="M366.34,639.43c-87.53,87.55-175.07,175.08-262.6,262.62-2.65,2.67-5.25,5.38-7.89,8.07,21.73,14.08,45.66,21.4,71.38,23.21,82.17-82.18,164.35-164.36,246.41-246.65-15.76-15.74-31.52-31.49-47.29-47.25Z"/>
  <path class="cls-2" d="M341.08,840.68c-22.79,22.82-45.46,45.73-68.19,68.6,13.11-5.89,25.02-13.56,35.95-22.52,4.97-4.08,9.72-8.42,14.29-12.96,39.38-39.32,78.71-78.66,118.08-117.99l-8.03-7.24c-30.77,30.65-61.43,61.39-92.1,92.12Z"/>
  <path class="cls-4" d="M366.34,639.43c-13.48-13.47-26.96-26.95-40.43-40.42-90.24,90.18-180.45,180.37-270.68,270.55,9.96,17.11,23.5,30.62,40.62,40.56,2.64-2.7,5.24-5.4,7.89-8.07,87.53-87.55,175.08-175.08,262.6-262.62Z"/>
  <path class="cls-4" d="M598.79,326.12c4.96,4.98,9.95,9.97,14.93,14.95.13-.14.25-.26.38-.39,8.51,8.49,17,16.99,25.49,25.49,64.01-63.98,128.01-127.98,192.02-191.97,23.93-23.9,47.92-47.77,71.89-71.64-9.75-17.36-23.46-30.76-40.59-40.78-2.62,2.68-5.2,5.42-7.86,8.07-85.41,85.44-170.84,170.86-256.25,256.27Z"/>
  <path class="cls-4" d="M341.08,840.68c30.67-30.73,61.33-61.47,92.1-92.12l-11.75-10.61v-43.5c-2.6-2.58-5.19-5.18-7.79-7.78-82.06,82.3-164.24,164.47-246.41,246.65,5.61.2,11.23.72,16.83.52,5.93-.21,11.77-.65,17.57-1.33,25.08-2.92,48.94-10.31,71.26-23.25,22.73-22.87,45.4-45.79,68.19-68.6Z"/>
  <path class="cls-4" d="M32.12,797.41c27.58-27.53,55.18-55.03,82.73-82.58,54.49-54.47,108.92-108.99,163.5-163.37-4.71-4.71-9.42-9.44-14.14-14.15l-23,23-26.42-26.41c-50.01,50.17-100.14,100.23-150.25,150.32-2.66,2.65-5.49,5.13-8.24,7.69-2.88,5.12-5.53,10.3-7.93,15.53-12.92,28.28-18.56,58.21-16.26,89.97Z"/>
  <path class="cls-4" d="M701.99,428.57l22.85-22.87,25.61,25.61c34.09-34.2,68.26-68.3,102.41-102.42,16.54-16.51,33.19-32.93,49.78-49.38,18.21-32.79,26.95-67.72,23.81-105.34-79.83,79.77-159.65,159.57-239.5,239.37,5.01,5.01,10.01,10.02,15.03,15.03Z"/>
  <path class="cls-4" d="M536.44,212.29l26.13,26.1-25.65,25.68c4.79,4.79,9.59,9.62,14.39,14.45,79.77-80,159.64-159.85,239.5-239.74-37.66-2.85-72.71,5.75-105.49,24.16-2.57,2.74-5.04,5.55-7.69,8.21-47.04,47.07-94.05,94.16-141.19,141.14Z"/>
  <path class="cls-5" d="M876.88,603.44c-32.27-32.25-64.53-64.52-96.79-96.79l22.86-22.85-24.21-24.21c34.09-34.12,68.16-68.23,102.27-102.31,12.37-12.38,23.86-25.48,33.53-40.05,31.75-47.94,47.93-100.14,39.88-157.88-6.7-48.19-27.89-88.97-68.69-117.33-50.88-35.36-106.76-40.71-165.42-24.86-44.6,12.05-81.99,36.43-114.42,68.91-32.61,32.62-65.21,65.21-97.83,97.83l-23.59-23.59-25.54,25.54c-39.7-39.73-79.52-79.35-119.64-118.66C291.84,20.72,233.54-2.64,166.38.24,78.09,4.05,10.66,66.75,1.38,154.65c-7.7,72.77,17.17,135.7,67.68,186.65,38.99,39.33,78.05,78.6,117.14,117.83l-23.08,23.08,23.48,23.49c-39.17,39.14-78.22,78.4-116.96,117.96C23.18,671.11-.2,729.41,2.68,796.56c3.78,88.29,66.51,155.72,154.4,165.02,72.76,7.7,135.69-17.17,186.64-67.69,39.79-39.43,79.51-78.95,119.18-118.5l20.57,18.57,19.72-17.81c34.16,34.13,68.33,68.28,102.47,102.43,12.37,12.39,25.46,23.87,40.05,33.52,47.93,31.76,100.15,47.93,157.86,39.9,48.21-6.71,88.97-27.9,117.34-68.71,35.36-50.88,40.7-106.76,24.85-165.41-12.04-44.62-36.44-82-68.89-114.44ZM413.82,587.11l26.82-83.4-70.73-51.69,87.6-.27,27.31-83.23,27.32,83.23,87.6.27-70.71,51.69,26.82,83.4-71.03-51.29-71.01,51.29ZM674.66,483.8l50.18-50.2,50.2,50.2-50.2,50.18-50.18-50.18ZM615.98,117.06c19.95-20.01,40.42-39.28,65.63-52.68,1.16-.62,2.46-.99,3.7-1.44,32.79-18.4,67.84-27.01,105.49-24.16,26.07,1.21,50.05,9.06,72.09,23,17.13,10.01,30.84,23.42,40.59,40.78,14.05,21.81,21.81,45.65,22.97,71.61,3.13,37.62-5.6,72.54-23.81,105.34-8.51,19.1-20.91,35.64-35.5,50.25-36.34,36.4-72.72,72.78-109.06,109.16l-7.63-7.62-25.61-25.61-22.85,22.87c-5.01-5.01-10.02-10.02-15.03-15.03-15.79-15.79-31.59-31.57-47.38-47.37-8.49-8.5-16.98-17-25.49-25.49-.13.13-.25.25-.38.39-4.98-4.98-9.96-9.97-14.93-14.95-15.84-15.86-31.66-31.72-47.48-47.6-4.8-4.82-9.59-9.65-14.39-14.45l25.65-25.68-26.13-26.1-7.77-7.79c29.14-29.12,58.26-58.27,87.32-87.44ZM484.46,188.22l50.2,50.17-50.2,50.2-50.18-50.2,50.18-50.17ZM89.16,320.71c-14.59-14.62-26.95-31.18-35.5-50.26-15.91-27.46-23.45-57.28-24.57-88.83-.19-5.59.31-11.23.51-16.82,1.82-25.73,9.13-49.66,23.21-71.39,9.94-17.1,23.46-30.64,40.57-40.6,5.5-3.52,11.13-6.63,16.89-9.36,17.27-8.16,35.69-12.73,55.25-13.74,25.89-1.9,50.55,1.52,74.1,9.82,3.2,1.15,6.39,2.37,9.57,3.69,2.12.88,4.22,1.78,6.31,2.74,4.19,1.92,8.34,4.01,12.46,6.24,1.03.57,2.05,1.13,3.08,1.7,18.19,8.44,34.11,20.17,48.3,34.17,39.83,39.31,79.53,78.73,119.18,118.2l-7.79,7.78-24.35,24.35,28.25,28.27-16.23,16.2-47.54,47.53-40.43,40.43-47.27,47.27-13.96,13.98-27.96-27.98-26.74,26.75-7.63,7.63c-39.24-39.27-78.49-78.51-117.69-117.78ZM191.03,482.21l50.2-50.18,50.2,50.18-50.2,50.2-50.2-50.2ZM323.13,873.8c-4.57,4.54-9.33,8.89-14.29,12.96-10.92,8.96-22.84,16.63-35.94,22.52-22.34,12.94-46.19,20.33-71.28,23.25-5.8.68-11.64,1.12-17.57,1.33-5.6.19-11.22-.32-16.83-.52-25.72-1.81-49.65-9.13-71.38-23.21-17.11-9.95-30.66-23.45-40.62-40.56-1.75-2.75-3.42-5.54-4.97-8.35-10.92-19.71-16.96-40.99-18.14-63.8-2.3-31.76,3.34-61.7,16.26-89.97,2.4-5.23,5.05-10.41,7.93-15.53,8.44-18.19,20.16-34.11,34.15-48.29,38.76-39.27,77.63-78.4,116.55-117.5l7.78,7.79,26.42,26.41,23-23c4.71,4.71,9.42,9.44,14.14,14.15,15.84,15.86,31.69,31.7,47.55,47.55,13.47,13.47,26.96,26.95,40.43,40.42,15.77,15.76,31.53,31.51,47.29,47.25,2.6,2.6,5.19,5.19,7.79,7.78v43.5l11.75,10.61,8.03,7.24c-39.36,39.33-78.7,78.67-118.08,117.99ZM483.48,767.36l-42.33-38.18v-42.23h84.59v42.23l-42.27,38.18ZM924.18,788.35c-1.23,26.1-9.06,50.07-23,72.11-10.02,17.13-23.42,30.84-40.79,40.59-4.09,2.64-8.25,5.05-12.48,7.24-18.34,9.49-38.02,14.79-59.12,15.73-32.92,2.74-63.79-3.6-92.96-17.44-4.16-1.98-8.3-4.11-12.4-6.38-19.08-8.51-35.62-20.91-50.23-35.49-36.12-36.05-72.19-72.14-108.28-108.18l8.01-7.24,12.55-11.34v-53.39l1.99-1.98,47.36-47.38,40.44-40.44,47.53-47.53,13.7-13.7,28.34,28.34,26.85-26.85,7.79-7.77c28.78,28.78,57.58,57.55,86.42,86.29,19.99,19.93,39.27,40.4,52.68,65.63.61,1.16.96,2.46,1.44,3.69,18.4,32.79,26.97,67.84,24.15,105.48Z"/>
  <path class="cls-2" d="M122.26,338.64c-22.81-22.79-45.73-45.45-68.6-68.19,8.55,19.08,20.91,35.64,35.5,50.26,39.21,39.27,78.46,78.51,117.69,117.78l7.63-7.63c-30.67-30.81-61.47-61.5-92.23-92.21Z"/>
  <path class="cls-2" d="M891.78,675.19c2.65,2.65,5.49,5.14,8.24,7.69-.48-1.23-.83-2.53-1.44-3.69-13.4-25.23-32.69-45.7-52.68-65.63-28.84-28.74-57.64-57.51-86.42-86.29l-7.79,7.77c46.63,46.79,93.37,93.46,140.08,140.15Z"/>
  <path class="cls-2" d="M532.93,749.3l-8.01,7.24c36.09,36.05,72.17,72.14,108.28,108.18,14.6,14.58,31.15,26.98,50.23,35.49-16.45-16.59-32.86-33.24-49.37-49.76-33.69-33.74-67.37-67.5-101.13-101.15Z"/>
  <path class="cls-2" d="M594.84,635.22l-47.36,47.38c80.44,80.47,160.89,160.95,241.32,241.43,21.09-.94,40.77-6.24,59.12-15.73,4.23-2.19,8.39-4.6,12.48-7.24-23.88-23.97-47.73-47.97-71.64-71.88-64.63-64.66-129.29-129.28-193.91-193.95Z"/>
  <path class="cls-2" d="M430.72,214.04l7.79-7.78c-39.64-39.48-79.35-78.9-119.18-118.2-14.18-14-30.11-25.73-48.3-34.17,2.56,2.76,5.04,5.59,7.69,8.24,50.65,50.68,101.26,101.36,151.99,151.92Z"/>
  <path class="cls-2" d="M283.16,418.1l47.27-47.27C240.58,281,150.73,191.16,60.89,101.31c-2.66-2.65-5.38-5.28-8.07-7.9-14.08,21.73-21.39,45.66-23.21,71.39,84.48,84.46,168.95,168.94,253.54,253.3Z"/>
  <path class="cls-2" d="M682.8,547.25l-47.53,47.53c85.94,85.95,171.87,171.89,257.82,257.82,2.67,2.66,5.39,5.25,8.08,7.86,13.94-22.04,21.77-46.01,23-72.11-80.43-80.39-160.84-160.8-241.37-241.11Z"/>
  <path class="cls-2" d="M370.86,330.4l47.54-47.53c-56.66-56.92-113.5-113.66-170.28-170.44-27.54-27.57-55.05-55.16-82.56-82.73-19.57,1.01-37.99,5.58-55.26,13.74-5.76,2.74-11.39,5.84-16.89,9.36,92.48,92.53,185,185.05,277.46,277.59Z"/>
  <path class="cls-4" d="M330.42,370.83l40.43-40.43C278.39,237.86,185.88,145.34,93.39,52.81c-17.11,9.96-30.63,23.51-40.57,40.6,2.7,2.63,5.41,5.25,8.07,7.9,89.84,89.85,179.69,179.69,269.53,269.52Z"/>
  <path class="cls-4" d="M635.27,594.78l-40.44,40.44c64.62,64.67,129.28,129.29,193.91,193.95,23.92,23.92,47.76,47.91,71.64,71.88,17.37-9.75,30.77-23.46,40.79-40.59-2.69-2.61-5.41-5.2-8.08-7.86-85.95-85.93-171.88-171.87-257.82-257.82Z"/>
  <path class="cls-4" d="M214.49,430.85l26.74-26.75,27.96,27.98,13.96-13.98C198.56,333.74,114.09,249.26,29.61,164.8c-.2,5.59-.71,11.23-.51,16.82,1.12,31.54,8.65,61.37,24.57,88.83,22.87,22.74,45.78,45.4,68.6,68.19,30.76,30.72,61.56,61.4,92.23,92.21Z"/>
  <path class="cls-4" d="M165.55,29.7c27.51,27.57,55.02,55.16,82.56,82.73,56.78,56.78,113.62,113.52,170.28,170.44l16.23-16.2-28.25-28.27,24.35-24.35c-50.74-50.56-101.34-101.24-151.99-151.92-2.66-2.65-5.13-5.47-7.69-8.24-1.03-.56-2.05-1.13-3.08-1.7-4.12-2.23-8.27-4.32-12.46-6.24-2.09-.95-4.19-1.86-6.31-2.74-3.17-1.32-6.36-2.54-9.57-3.69-23.55-8.3-48.2-11.72-74.08-9.82Z"/>
  <path class="cls-4" d="M788.79,924.02c-80.43-80.47-160.88-160.95-241.32-241.43l-1.99,1.98v53.39l-12.55,11.34c33.76,33.65,67.44,67.41,101.13,101.15,16.51,16.52,32.91,33.17,49.37,49.76,4.11,2.27,8.24,4.4,12.4,6.38,29.18,13.84,60.05,20.17,92.96,17.44Z"/>
  <path class="cls-4" d="M891.78,675.19c-46.71-46.69-93.45-93.36-140.08-140.15l-26.85,26.85-28.34-28.34-13.7,13.7c80.53,80.31,160.94,160.72,241.37,241.11,2.82-37.64-5.76-72.69-24.15-105.48-2.75-2.55-5.59-5.04-8.24-7.69Z"/>
  <path class="cls-1" d="M739.55,146.6c1.12,1.13,2.95,1.13,4.12.06,1.15-1.16,1.16-2.99.04-4.09-1.16-1.15-2.99-1.15-4.11-.05-1.17,1.07-1.21,2.96-.06,4.09Z"/>
  <polygon class="cls-2" points="525.74 729.18 525.74 686.95 441.15 686.95 441.15 729.18 483.48 767.36 525.74 729.18"/>
  <polygon class="cls-2" points="241.23 532.41 291.43 482.21 241.23 432.02 191.03 482.21 241.23 532.41"/>
  <polygon class="cls-2" points="434.28 238.39 484.46 288.59 534.66 238.39 484.46 188.22 434.28 238.39"/>
  <polygon class="cls-2" points="724.85 533.99 775.05 483.8 724.85 433.6 674.66 483.8 724.85 533.99"/>
  <polygon class="cls-2" points="484.83 535.82 555.85 587.11 529.03 503.71 599.74 452.01 512.14 451.75 484.83 368.52 457.52 451.75 369.91 452.01 440.64 503.71 413.82 587.11 484.83 535.82"/>
</svg>