<?xml version="1.0" encoding="UTF-8"?>
<svg id="Layer_1" xmlns="http://www.w3.org/2000/svg" viewBox="0 0 139.64 48.61">
  <defs>
    <style>
      .cls-1 {
        fill: #ea3f3c;
      }

      .cls-2 {
        fill: #fff;
      }

      .cls-3 {
        fill: #1f3b66;
      }
    </style>
  </defs>
  <path class="cls-2" d="M139.6,23.73c-.13-1.19-.51-2.29-1.13-3.26-.61-.94-1.37-1.71-2.28-2.3-.68-.43-1.41-.73-2.2-.9-.41-.09-.83-.13-1.24-.13-.19,0-.38.01-.57.03l.83-2.02c.83-1.99.94-3.59.33-4.91-.42-.9-1.56-2.42-4.43-2.42-.27,0-.55.01-.82.04-.29.03-.56.08-.81.14-.07.01-.13.03-.19.03l-1.49.19-1.9,4.08c-.44.08-.87.21-1.3.36.02-.16.03-.31.03-.47,0-1.19-.45-2.26-1.29-3.1-.28-.28-.59-.52-.92-.71l3.42-5.53-7.18-.08c-2.48,0-4.83.34-7,1.02-2.11.66-4.12,1.56-5.98,2.66-1.83,1.09-3.57,2.38-5.16,3.81-1.04.94-2.05,1.92-3.03,2.92-.41-.17-.83-.34-1.25-.5-1.13-.43-2.26-.76-3.37-.97-.8-.15-1.61-.23-2.39-.23-.4,0-.79.02-1.18.06-1.34.14-2.6.6-3.75,1.39-1.31.92-2.24,2.08-2.76,3.44-.25.65-.41,1.3-.48,1.96-.07,0-.14,0-.21,0-1.64,0-3.13.44-4.44,1.31l1.2-2.86h-8.14l.67-1.63c.83-1.99.94-3.59.33-4.9-.42-.9-1.56-2.42-4.43-2.42-.27,0-.55.01-.82.04-.29.03-.56.08-.81.14-.07.01-.13.03-.19.03l-1.49.19-1.9,4.08c-1.32.25-2.59.83-3.79,1.73-.12.09-.23.18-.34.28-.51-.83-1.71-2.15-4.17-2.15-.88,0-1.75.18-2.61.54-.67-.33-1.51-.54-2.53-.54-.27,0-.55.01-.83.04-.28.03-.56.08-.82.14-.06.01-.11.03-.17.04h-4.06c-.47-.15-.98-.22-1.51-.22-1.86,0-3.65.63-5.3,1.87-.36.27-.7.57-1.02.9-.13-.3-.28-.59-.45-.87.33-.51.6-1.04.82-1.59.28-.72.45-1.47.51-2.24.06-.82-.03-1.65-.27-2.45-.11-.37-.25-.73-.41-1.07h1.13V0h-2.71c-1.52,0-2.99.25-4.36.74-.97.35-1.92.8-2.83,1.35-.51-.04-1.04-.06-1.57-.06h-.22c-.95.01-1.92.09-2.88.22-.94.13-1.89.32-2.81.55-.95.24-1.87.55-2.75.91-1.66.69-3.08,1.51-4.22,2.45-1.18.96-2.11,1.99-2.79,3.07-.74,1.19-1.17,2.41-1.28,3.65-.12,1.3.09,2.52.61,3.61.48,1,1.2,1.84,2.15,2.5-.48-.08-.98-.12-1.5-.12-1.34,0-2.52.25-3.51.73-1.03.51-1.85,1.19-2.42,2.02-.62.9-.95,1.94-.95,3.03s.34,2.15.99,3.05c.6.84,1.46,1.52,2.56,2.02,1.03.47,2.22.7,3.65.7,1.1,0,2.16-.16,3.16-.47.24-.07.47-.16.71-.25.5.52,1.04,1.01,1.59,1.45.62.49,1.29.93,2,1.3.81.43,1.69.72,2.59.88.82.15,1.63.22,2.42.22.47,0,.93-.03,1.38-.08-.41.31-.8.62-1.17.95-1.9,1.65-3.39,3.4-4.44,5.23l-3.69,6.39,6.95-2.49c1.48-.53,2.83-.81,4.03-.85.15,0,.31,0,.46,0,1.02,0,1.92.11,2.69.33.8.23,1.44.54,1.93.94.42.35.71.69.85,1.03l1.49,3.59,2.86-2.64c1.71-1.58,3.76-2.92,6.1-3.99,2.43-1.11,5.14-2.02,8.06-2.7,2.98-.7,6.18-1.22,9.54-1.54,3.4-.33,6.95-.54,10.56-.61,1.53-.03,3.09-.05,4.63-.05,2.12,0,4.29.03,6.45.09,3.72.1,7.48.23,11.17.4,3.7.17,7.29.32,10.79.47,3.52.15,6.9.22,10.02.22,3.67,0,6.97-.18,9.8-.55,2.86-.37,5.39-.88,7.52-1.52,2.2-.66,4.08-1.45,5.59-2.34,1.55-.91,2.82-1.9,3.78-2.94,1.04-1.13,1.78-2.34,2.19-3.58.4-1.24.55-2.45.42-3.61ZM71.71,24.11c-.31.72-.55,1.47-.7,2.24-1.23-.08-2.47-.16-3.73-.22.13-.13.26-.27.38-.41.42-.49.77-1.03,1.04-1.6h3.01ZM100.34,23.46c-.23.54-.42,1.05-.56,1.54-.43,1.46-.52,2.72-.31,3.83-.25-.02-.5-.03-.75-.05-1.41-.11-2.84-.23-4.27-.35.55-.57,1.09-1.15,1.62-1.76,1.02-1.17,2.05-2.36,3.07-3.58.4.14.8.26,1.2.37ZM112.68,28.39c.42.1.88.17,1.41.17.76,0,1.53-.14,2.28-.41.37-.14.73-.3,1.07-.49.86.6,1.88.9,3.06.9.88,0,1.78-.2,2.68-.61.74.41,1.6.61,2.57.61.08,0,.16,0,.23-.01-1.23.31-2.66.52-4.25.62-2.76.18-5.5.27-8.17.27-.49,0-.99,0-1.48-.01.22-.33.41-.68.59-1.03ZM132.27,24.63c.14-.24.26-.48.37-.73-.02.1-.04.21-.07.3-.1.32-.3.67-.59,1.04l.29-.61ZM18.92,23.14c.63-.88,1.25-1.8,1.86-2.74.06,0,.12,0,.19,0,.08,0,.16,0,.24,0,.81,0,1.69-.13,2.59-.38.91-.25,1.85-.62,2.78-1.1,0,0,.01,0,.02,0,0,.18-.01.36-.04.56-.08.66-.31,1.36-.67,2.07-.37.71-.85,1.33-1.48,1.9-.61.55-1.37.99-2.26,1.31-.58.21-1.25.32-1.97.32-.29,0-.6-.02-.92-.05-.57-.06-1.08-.19-1.52-.37.41-.48.8-.99,1.18-1.52ZM30.81,27.29c.13.12.26.23.4.33.26.19.54.34.83.47-.86.26-1.7.54-2.5.84.46-.53.88-1.07,1.27-1.64ZM83.03,26.3c.11-.14.22-.29.32-.44.16.13.33.25.51.37-.39.39-.79.75-1.17,1.08-.2-.02-.4-.04-.61-.06.35-.28.67-.6.95-.94Z"/>
  <g>
    <path class="cls-3" d="M19.65,32.21c.68,0,1.36-.07,2-.2,1.27-.26,2.45-.7,3.51-1.32,1.05-.61,2-1.38,2.82-2.29.81-.89,1.51-1.86,2.06-2.89.32-.59.6-1.2.83-1.82.02.46.09.89.21,1.28.23.68.62,1.23,1.17,1.62.55.4,1.24.6,2.06.6.63,0,1.28-.16,1.95-.47.3-.14.6-.31.89-.5.15.18.32.33.51.46.51.34,1.15.51,1.9.51.55,0,1.1-.1,1.65-.3.45-.16.87-.38,1.27-.64.5.62,1.34.94,2.52.94.47,0,.86-.03,1.22-.1.17-.04.34-.08.49-.11l.42-.11.45-.97c.26.44.64.78,1.12.99.44.2.95.3,1.52.3s1.1-.1,1.65-.3c.52-.19,1.02-.45,1.48-.77.15-.11.3-.22.44-.34.21.32.47.59.78.82.55.4,1.25.6,2.06.6.62,0,1.28-.15,1.95-.45.31-.14.61-.3.92-.5.15.18.32.33.51.46.5.33,1.13.49,1.88.49.55,0,1.1-.1,1.65-.3.52-.19,1.02-.45,1.48-.77.46-.32.88-.7,1.25-1.14.38-.45.69-.94.91-1.47l.18-.42-.21-.35h5.19l1.56-3.71h-6.44l-1.05,2.5-.62-1.03-.72,1.5c-.18.36-.39.64-.64.83-.1.07-.19.13-.27.18l3.33-8.12c.62-1.49.74-2.62.36-3.44-.29-.63-1.02-1.38-2.79-1.38-.21,0-.42.01-.63.03-.22.02-.42.06-.59.1-.14.03-.26.05-.38.07l-.5.06-1.36,2.93h1.57l-.57,1.39c-.37-.16-.79-.24-1.24-.24-1.47,0-2.88.51-4.21,1.51-1.29.98-2.39,2.49-3.25,4.5-.26.58-.44,1.15-.55,1.7-.16.3-.35.54-.57.7-.1.07-.18.13-.26.17.04-.1.09-.21.13-.33.16-.38.32-.8.51-1.24.19-.45.36-.88.53-1.3.17-.42.3-.75.38-.97.6-1.45.64-2.57.13-3.43-.36-.61-1.11-1.33-2.66-1.33-.65,0-1.31.14-1.96.42-.27.12-.53.25-.79.41-.43-.46-1.16-.83-2.39-.83-.21,0-.42.01-.63.03-.21.02-.42.06-.58.1-.13.03-.26.06-.38.09h-4.31l-.09.09c-.41-.2-.87-.31-1.39-.31-1.47,0-2.88.51-4.22,1.51-1.25.94-2.3,2.38-3.13,4.26.03-.36.04-.71.03-1.06-.03-1.06-.24-2.05-.63-2.94-.27-.62-.63-1.18-1.08-1.66.19-.23.37-.46.53-.69.35-.5.64-1.02.85-1.56.22-.55.35-1.13.39-1.71.04-.6-.02-1.22-.2-1.81-.25-.87-.72-1.61-1.41-2.2-.26-.23-.55-.44-.85-.63.14-.08.28-.15.42-.21.51-.23,1.02-.34,1.58-.34h.9v-3.11h-.9c-1.32,0-2.58.21-3.75.63-1.04.37-2.05.88-3,1.51-.65-.08-1.32-.12-2.01-.12h-.2c-.87.01-1.76.08-2.64.2-.88.12-1.76.3-2.61.52-.87.22-1.71.5-2.5.83-1.49.62-2.76,1.35-3.77,2.18-1.02.83-1.83,1.72-2.39,2.63-.59.95-.93,1.91-1.02,2.85-.09.97.06,1.87.44,2.67.39.81,1.02,1.49,1.87,2,.82.5,1.84.79,3.03.88h.19c-.06.11-.12.21-.18.31-.67,1.09-1.33,2.09-1.98,2.97-.43-.26-.87-.5-1.32-.69-.77-.33-1.64-.5-2.59-.5-1.06,0-1.97.18-2.71.55-.75.37-1.34.85-1.74,1.43-.42.6-.63,1.27-.63,1.99s.22,1.4.65,2c.41.58,1.03,1.06,1.84,1.43.78.36,1.75.54,2.89.54.92,0,1.8-.13,2.62-.39.57-.18,1.14-.41,1.69-.7.26.29.52.57.79.86.46.49.96.95,1.48,1.36.53.42,1.11.8,1.72,1.11.64.34,1.34.57,2.07.7.71.13,1.42.19,2.1.19ZM13.62,15.81c-.12-.21-.18-.46-.17-.78.01-.39.12-.84.31-1.34.2-.51.51-1.04.92-1.56.42-.54.97-1.07,1.61-1.57.64-.5,1.43-.96,2.33-1.35.43-.18.85-.35,1.27-.49-.48.57-.94,1.17-1.39,1.78-1.06,1.47-2.07,2.97-3.02,4.47-.28.44-.55.88-.82,1.31l-.66-.18c-.18-.05-.29-.14-.39-.29ZM27.68,8.83c.36.29.6.64.72,1.02.06.22.06.46.01.72-.06.32-.16.64-.31.95-.16.33-.35.64-.57.92-.11.14-.23.28-.34.4-.64-.18-1.34-.26-2.08-.26-.52,0-1.05.06-1.57.18.37-.6.74-1.19,1.1-1.77.65-1.03,1.32-1.95,2-2.75.41.15.76.35,1.04.57ZM17.45,22.53c.84-1.17,1.66-2.41,2.46-3.68.34.11.71.17,1.12.19.06,0,.12,0,.18,0,.65,0,1.36-.1,2.11-.31.79-.22,1.61-.54,2.44-.97.61-.31,1.2-.67,1.77-1.07.28.29.49.64.63,1.08.23.72.3,1.51.2,2.36-.11.88-.4,1.78-.86,2.68-.46.9-1.1,1.71-1.89,2.42-.78.7-1.74,1.26-2.84,1.66-.78.28-1.65.43-2.59.43-.36,0-.74-.02-1.12-.06-1.03-.11-1.94-.39-2.69-.83-.51-.29-1-.6-1.47-.94.9-.87,1.75-1.87,2.54-2.98ZM44.52,17.63l-1.86,4.52c-.16.28-.35.51-.56.67-.1.07-.19.13-.27.18.03-.07,1.32-3.21,1.32-3.21.24-.58.47-1.13.69-1.65.07-.18.15-.35.21-.51h.46ZM36.39,21.07c.33-.68.65-1.27.95-1.74.28-.44.55-.79.8-1.04.22-.23.44-.39.65-.48.06-.03.13-.05.2-.07l-1.91,4.66c-.09.2-.17.39-.23.59-.24.2-.48.35-.71.47-.22.11-.41.17-.57.18,0-.04,0-.1,0-.18.01-.27.09-.6.22-.99.14-.42.34-.88.6-1.4ZM47.7,22.43c-.24.57-.38,1.09-.44,1.57h-.38s0-.01,0-.02c.05-.14.16-.4.33-.79.18-.41.37-.87.56-1.37.19-.48.39-.96.59-1.43.21-.49.37-.89.48-1.18.05-.12.09-.24.12-.35,0,0,0-.02,0-.02.1-.09.2-.16.3-.21l-1.58,3.8ZM57.92,23.46c.01-.27.09-.6.22-.99.14-.43.34-.9.57-1.39.67-1.35,1.27-2.29,1.77-2.8.28-.29.56-.47.86-.55-.12.3-.24.6-.36.9-.25.61-.48,1.17-.7,1.68-.22.52-.41.97-.57,1.35-.15.37-.26.62-.33.79-.05.14-.1.26-.14.36-.02.06-.05.12-.07.18-.25.2-.49.36-.72.48-.2.1-.37.16-.52.17,0-.04,0-.1,0-.18ZM8.49,24.9c-.28.23-.55.42-.82.57-.45.25-.87.38-1.31.38-.54,0-.94-.11-1.18-.32-.32-.28-.32-.48-.32-.55s0-.27.32-.55c.17-.15.54-.32,1.35-.32.47,0,.89.11,1.28.34.23.13.45.29.68.46Z"/>
    <path class="cls-3" d="M137.8,24.37c-.1-.91-.39-1.74-.86-2.48-.47-.72-1.04-1.31-1.73-1.75-.49-.32-1.04-.54-1.61-.66-.29-.06-.58-.09-.86-.09-.31,0-.63.04-.93.11-.58.14-1.14.43-1.66.86-.49.4-.9.96-1.24,1.64h0c-.18.37-.39.65-.64.84-.1.07-.19.13-.27.18l3.33-8.12c.62-1.49.74-2.62.36-3.44-.29-.63-1.02-1.38-2.79-1.38-.21,0-.42.01-.63.03-.22.02-.42.06-.59.1-.14.03-.26.05-.39.07l-.5.06-1.36,2.93h1.57l-.57,1.39c-.37-.16-.79-.24-1.24-.24-1.47,0-2.88.51-4.21,1.51-1.29.98-2.39,2.49-3.25,4.5-.25.58-.43,1.15-.55,1.7-.16.3-.35.54-.57.71-.1.07-.19.13-.27.18.17-.42.33-.82.49-1.21.2-.48.4-.97.6-1.45l.45-1.13c.6-1.47.72-2.58.35-3.4-.09-.2-.22-.41-.4-.6.06,0,.12,0,.18,0,.7,0,1.33-.26,1.83-.76.5-.5.76-1.13.76-1.83s-.26-1.33-.76-1.83c-.5-.5-1.13-.76-1.83-.76-.27,0-.52.04-.77.11l3.15-5.09-3.96-.05c-2.29,0-4.47.32-6.46.94-1.97.62-3.86,1.46-5.6,2.49-1.73,1.03-3.37,2.24-4.87,3.6-1.32,1.19-2.59,2.44-3.8,3.73-.76-.33-1.55-.65-2.34-.96-1.03-.39-2.06-.69-3.07-.89-.69-.13-1.38-.2-2.04-.2-.33,0-.67.02-1,.05-1.04.11-2.01.47-2.9,1.07-1.01.71-1.72,1.59-2.11,2.6-.38.99-.49,2-.34,3.01.07.48.2.95.37,1.41-.14-.27-.34-.52-.6-.73-.45-.38-1.06-.57-1.81-.57-1.32,0-2.52.37-3.57,1.09-1,.69-1.82,1.57-2.43,2.62-.61,1.04-1,2.17-1.17,3.36-.05.36-.07.72-.07,1.07-3.6-.26-7.35-.46-11.19-.61-2.48-.09-5.07-.14-7.71-.14-2.22,0-4.53.03-6.86.1-3.97.11-7.62.54-10.84,1.28-3.23.74-6.13,1.7-8.61,2.87-2.5,1.17-4.64,2.53-6.37,4.03-1.74,1.51-3.11,3.12-4.06,4.76l-1.23,2.13,2.32-.83c1.65-.59,3.2-.91,4.59-.96.17,0,.35,0,.51,0,1.18,0,2.26.14,3.19.4,1.04.3,1.9.73,2.58,1.28.66.54,1.12,1.12,1.37,1.73l.5,1.2.95-.88c1.85-1.71,4.07-3.16,6.57-4.3,2.54-1.16,5.37-2.11,8.4-2.82,3.05-.72,6.34-1.25,9.78-1.58,3.45-.34,7.05-.55,10.7-.62,1.54-.03,3.11-.05,4.67-.05,2.14,0,4.33.03,6.5.09,3.73.1,7.5.23,11.21.4,3.69.17,7.29.32,10.78.47,3.5.15,6.84.22,9.95.22,3.6,0,6.81-.18,9.57-.53,2.76-.36,5.2-.84,7.23-1.45,2.06-.62,3.8-1.34,5.19-2.16,1.39-.82,2.53-1.7,3.37-2.61.87-.94,1.47-1.92,1.8-2.92.33-.99.44-1.95.34-2.85ZM94.71,25.93c1.28-1.47,2.58-2.99,3.87-4.52.9.36,1.79.65,2.66.87.59.15,1.17.27,1.75.37-.7,1.25-1.19,2.36-1.47,3.31-.37,1.28-.45,2.32-.23,3.18.24.94.79,1.67,1.61,2.11.05.03.12.05.17.08-1.5-.09-2.99-.18-4.49-.3-2.73-.21-5.51-.45-8.29-.71,1.51-1.29,3-2.76,4.41-4.38ZM111.69,9.49c-.72,1.03-1.49,2.14-2.3,3.32-.81,1.18-1.63,2.38-2.45,3.58-.71,1.04-1.36,2.03-1.96,2.96-1.24-.09-2.57-.38-3.97-.85.84-.99,1.7-1.95,2.56-2.89,1.12-1.22,2.28-2.35,3.46-3.35,1.16-.99,2.37-1.84,3.6-2.54.44-.25.89-.47,1.35-.66-.1.14-.19.28-.29.42ZM107.55,31.43c.6-.26,1.17-.6,1.68-1.02.51-.42.96-.93,1.34-1.51.37-.57.67-1.17.9-1.81l.16-.44-1.94-2.76-.62,1.54c-.11.28-.26.53-.42.73-.19.23-.38.42-.58.57-.18.14-.36.25-.53.32-.2.08-.29.08-.31.08,0,0-.02,0-.02,0,0,0,0-.02,0-.03.03-.18.12-.5.38-1.03.24-.49.53-1.02.85-1.57.33-.57.71-1.17,1.11-1.81.42-.65.83-1.31,1.24-1.98.31-.52.68-1.12,1.1-1.81.24-.41.5-.83.76-1.26h.93c-.1.21-.23.54-.4.97-.17.44-.36.91-.56,1.4-.2.49-.4.96-.59,1.41-.19.45-.34.79-.43,1.02-.6,1.45-.64,2.57-.13,3.43.36.61,1.11,1.33,2.66,1.33.54,0,1.1-.1,1.65-.3.52-.19,1.02-.45,1.48-.77.15-.11.3-.22.44-.34.21.32.46.59.78.82.55.4,1.24.6,2.06.6.62,0,1.28-.15,1.94-.45.31-.14.62-.3.92-.5.14.18.32.33.51.46.5.33,1.13.49,1.88.49.55,0,1.1-.1,1.65-.3.52-.19,1.02-.45,1.48-.77.46-.32.88-.7,1.25-1.13.38-.45.69-.94.91-1.47l.08-.2c.34-.6.74-.97,1.17-1.11.14-.04.27-.06.4-.06.33,0,.67.14,1.03.43.35.28.57.63.68,1.08.12.47.08.99-.11,1.56-.2.62-.59,1.26-1.15,1.91-.58.67-1.37,1.31-2.36,1.9-1.01.6-2.26,1.12-3.73,1.55-1.48.43-3.22.71-5.19.84-2.8.18-5.58.27-8.28.27-1.16,0-2.32-.02-3.46-.05-.94-.03-1.89-.06-2.84-.1.09-.03.18-.06.27-.1ZM121.76,23.46c.01-.27.09-.6.22-.99.14-.43.34-.9.57-1.39.67-1.35,1.27-2.29,1.77-2.8.28-.29.56-.47.86-.55-.12.3-.24.6-.37.9-.24.61-.48,1.17-.7,1.68-.22.52-.41.97-.57,1.35-.15.37-.26.62-.33.79-.05.14-.1.25-.14.35-.02.06-.05.12-.07.18-.25.2-.49.36-.72.48-.2.1-.37.16-.52.17,0-.04,0-.1,0-.18ZM115.44,14.41c-.21,0-.42.01-.63.03-.09,0-.17.02-.25.03l.08-.13c.27-.44.53-.86.8-1.28.09.52.33,1,.72,1.39-.21-.03-.45-.05-.71-.05ZM86.79,21.56c.07-.38.24-.77.51-1.16.27-.38.68-.73,1.23-1.03.75-.43,1.54-.63,2.42-.63.06,0,.12,0,.18,0,.58.02,1.18.09,1.77.2-.67.78-1.32,1.57-1.94,2.34-.9,1.12-1.81,2.21-2.69,3.24l-.87-.92c-.26-.27-.44-.58-.55-.95-.11-.36-.14-.72-.07-1.09ZM82.4,24.17c.17-.55.21-1.08.12-1.59-.02-.1-.04-.21-.07-.31.15.34.33.67.54.99.57.88,1.3,1.59,2.18,2.1l.35.2,2.57-.81c-.8.93-1.6,1.81-2.37,2.62-.81.86-1.63,1.61-2.43,2.23-.01,0-.02.01-.03.02-2.3-.22-4.66-.43-7.05-.62-.04-.58.03-1.2.24-1.84.07-.21.15-.41.23-.61.32.35.84.68,1.68.68.68,0,1.32-.16,1.9-.47.55-.3,1.01-.68,1.37-1.13.35-.45.62-.94.78-1.46Z"/>
  </g>
  <g>
    <path class="cls-1" d="M21.6,31.09c1.18-.24,2.26-.64,3.23-1.22.98-.57,1.85-1.28,2.61-2.11.76-.84,1.41-1.74,1.93-2.71.52-.97.92-1.96,1.19-2.98.27-1.02.39-2.01.36-2.96-.03-.95-.21-1.82-.55-2.61-.34-.79-.85-1.45-1.53-1.96.41-.41.76-.83,1.08-1.27.31-.44.56-.9.75-1.37.18-.47.29-.95.33-1.45.04-.5-.02-.99-.17-1.49-.2-.7-.58-1.29-1.13-1.77-.55-.48-1.23-.87-2.02-1.19.59-.5,1.19-.88,1.81-1.16.62-.28,1.27-.41,1.95-.41v-1.3c-1.22,0-2.36.19-3.44.58-1.08.39-2.1.92-3.08,1.6-.77-.11-1.58-.16-2.42-.15-.84,0-1.68.07-2.53.19-.85.12-1.69.29-2.51.5-.83.21-1.62.47-2.38.79-1.42.59-2.6,1.27-3.55,2.05-.95.77-1.68,1.58-2.2,2.4-.52.83-.81,1.65-.88,2.46-.07.81.05,1.54.36,2.2.31.65.82,1.19,1.52,1.62.7.42,1.58.67,2.63.75l.94-1.16c-.4-.11-.71-.35-.93-.71-.21-.36-.31-.78-.29-1.27.02-.49.14-1.03.37-1.63.23-.6.58-1.2,1.05-1.8.47-.6,1.06-1.17,1.77-1.73.71-.55,1.55-1.04,2.53-1.46,1.51-.64,2.97-1.07,4.37-1.27-1.22,1.16-2.35,2.47-3.4,3.92-1.05,1.46-2.05,2.93-2.99,4.42-.94,1.49-1.84,2.95-2.71,4.37-.87,1.42-1.71,2.66-2.54,3.73-.61-.44-1.24-.81-1.89-1.09-.65-.29-1.39-.43-2.22-.43-.92,0-1.69.15-2.31.46-.62.3-1.08.68-1.4,1.13-.31.45-.47.94-.47,1.48s.16,1.03.48,1.48c.32.45.81.83,1.48,1.13.66.3,1.5.46,2.52.46.83,0,1.61-.11,2.35-.35.74-.23,1.46-.56,2.16-.98.41.46.82.92,1.26,1.38.43.46.89.88,1.38,1.27.49.39,1.01.73,1.57,1.02.56.29,1.16.5,1.81.61,1.33.24,2.58.24,3.76,0ZM8.24,26.23c-.58.33-1.17.5-1.75.5-.77,0-1.37-.18-1.78-.55-.41-.37-.62-.78-.62-1.23s.21-.86.62-1.23c.41-.37,1.06-.55,1.95-.55.63,0,1.21.16,1.74.47.53.31,1.06.72,1.58,1.22-.57.59-1.15,1.05-1.73,1.38ZM23.99,10.49c.8-1.26,1.63-2.36,2.47-3.3.77.2,1.41.51,1.91.91.5.41.84.9,1.02,1.49.09.35.1.72.03,1.12-.07.4-.2.79-.39,1.17-.18.39-.41.75-.68,1.09-.27.34-.54.63-.82.87-.68-.26-1.46-.39-2.32-.39-.65,0-1.29.11-1.92.32-.64.21-1.22.45-1.76.71.83-1.4,1.64-2.73,2.45-3.99ZM16.05,27.19c-.87-.5-1.68-1.05-2.43-1.66,1.16-.99,2.23-2.18,3.22-3.56.99-1.38,1.94-2.83,2.86-4.34.37.3.86.45,1.48.47.62.02,1.29-.07,2.03-.28.74-.2,1.49-.5,2.27-.9.77-.4,1.51-.86,2.21-1.4.7.44,1.19,1.09,1.47,1.93.28.85.35,1.76.23,2.75-.12.99-.44,1.98-.95,2.99-.52,1-1.21,1.9-2.09,2.68-.88.78-1.92,1.4-3.14,1.84-1.22.44-2.59.58-4.12.41-1.16-.13-2.17-.44-3.04-.94Z"/>
    <path class="cls-1" d="M32.92,25.82c.4.28.91.43,1.53.43.5,0,1.02-.13,1.56-.39.54-.26,1.08-.61,1.62-1.05.09.48.32.84.68,1.08.36.24.82.36,1.4.36.44,0,.89-.08,1.34-.25.45-.17.88-.39,1.27-.66.26-.18.49-.39.72-.61,0,.26.05.48.14.67.27.57.93.86,1.98.86.4,0,.75-.03,1.02-.08.17-.04.32-.07.47-.11l.55-1.19h-.28c-.42,0-.69-.11-.8-.33-.11-.22-.09-.53.06-.91.06-.15.17-.42.34-.83.18-.41.36-.85.55-1.34.19-.49.39-.97.59-1.45.2-.48.36-.87.47-1.16.04-.09.07-.18.1-.28.03-.09.06-.18.1-.28.28-.28.57-.47.87-.59.3-.12.57-.17.79-.17.22,0,.38.09.48.25.1.16.1.37-.01.65l-1.8,4.31c-.24.57-.37,1.08-.39,1.52-.02.44.06.81.22,1.11.17.29.41.52.73.66.32.15.71.22,1.15.22s.89-.08,1.34-.25c.45-.17.87-.39,1.27-.66.4-.28.75-.6,1.08-.98.08-.09.15-.18.22-.27.03.2.07.39.13.56.17.5.45.89.84,1.17.4.28.91.43,1.53.43.5,0,1.02-.12,1.58-.37.55-.25,1.1-.59,1.63-1.04.09.48.31.83.66,1.06.35.23.81.35,1.38.35.44,0,.89-.08,1.34-.25.45-.17.87-.39,1.27-.66.4-.28.75-.6,1.08-.98.32-.38.58-.79.76-1.23l-.47-.77c-.24.5-.54.88-.91,1.16-.37.28-.71.45-1.04.51-.32.06-.57.02-.75-.12-.18-.15-.2-.41-.07-.77l3.54-8.62c.52-1.23.64-2.14.37-2.71-.27-.57-.93-.86-1.98-.86-.18,0-.36,0-.54.03-.18.02-.34.05-.48.08-.17.04-.32.06-.47.08l-.55,1.19h.28c.41,0,.67.12.79.35.12.23.1.53-.07.9l-1.02,2.49c-.37-.52-.91-.77-1.63-.77-1.27,0-2.49.44-3.66,1.33-1.17.88-2.16,2.27-2.97,4.14-.25.58-.43,1.13-.52,1.65-.24.47-.53.84-.88,1.11-.37.28-.72.44-1.04.5-.32.06-.58,0-.76-.14-.18-.15-.2-.4-.06-.75.07-.17.19-.44.35-.83.16-.39.33-.8.51-1.24.18-.44.36-.87.52-1.28.17-.42.3-.74.39-.98.48-1.16.54-2.04.19-2.63-.35-.59-.98-.88-1.88-.88-.53,0-1.07.12-1.6.35-.54.23-1.02.55-1.46.95-.13-.87-.82-1.3-2.07-1.3-.18,0-.36,0-.54.03-.18.02-.34.05-.48.08-.17.04-.32.07-.47.11l-.55,1.19h.28c.42,0,.69.11.8.35.11.23.08.53-.08.9l-1.87,4.56c-.23.43-.51.78-.85,1.03-.38.28-.72.44-1.04.5-.31.06-.56,0-.75-.14-.19-.15-.2-.4-.06-.75.04-.11.13-.35.29-.73.16-.38.34-.82.55-1.34.21-.52.44-1.06.68-1.64.24-.58.47-1.13.69-1.66.22-.53.41-.99.58-1.4.17-.41.28-.69.33-.86h-3.04s-.07.11-.1.21c-.03.1-.07.22-.12.35-.37-.52-.91-.77-1.63-.77-1.27,0-2.5.44-3.68,1.33-1.18.88-2.16,2.27-2.96,4.14-.33.76-.53,1.47-.59,2.14-.06.67-.01,1.26.15,1.75.17.5.45.89.84,1.17ZM57.4,22.15c.16-.47.36-.97.62-1.51.72-1.44,1.36-2.45,1.93-3.03.57-.58,1.2-.87,1.88-.87.35,0,.63.13.83.39-.24.59-.48,1.19-.73,1.81-.25.62-.48,1.18-.7,1.7-.22.52-.41.96-.57,1.34-.16.38-.26.63-.32.76-.06.15-.11.28-.15.39-.05.11-.09.23-.12.36-.37.31-.73.56-1.08.75-.35.18-.68.28-1,.28s-.54-.1-.68-.3c-.14-.2-.2-.48-.18-.83.02-.35.11-.76.26-1.23ZM35.05,22.15c.16-.47.37-.97.65-1.51.35-.72.68-1.33,1-1.82.31-.5.62-.9.93-1.2.3-.3.61-.53.91-.66.3-.14.63-.21.98-.21.37,0,.64.13.8.39l-2.29,5.61c-.11.24-.19.48-.25.72-.37.33-.74.59-1.11.77-.37.18-.71.28-1.02.28s-.54-.1-.68-.3c-.14-.2-.2-.48-.18-.83.02-.35.11-.76.26-1.23Z"/>
    <polygon class="cls-1" points="72.67 19.9 68.2 19.9 67.4 21.8 71.87 21.8 72.67 19.9"/>
    <path class="cls-1" d="M116.92,11.41c-.33.33-.5.73-.5,1.19s.17.86.5,1.19c.33.33.74.5,1.22.5s.86-.17,1.19-.5c.33-.33.5-.73.5-1.19s-.17-.86-.5-1.19c-.33-.33-.73-.5-1.19-.5s-.88.17-1.22.5Z"/>
    <path class="cls-1" d="M137.03,24.43c-.08-.77-.32-1.47-.72-2.09-.4-.62-.88-1.11-1.45-1.48-.41-.26-.84-.44-1.31-.54-.47-.1-.93-.1-1.38.01-.45.11-.88.34-1.3.68-.39.32-.72.77-1.01,1.34h0c-.24.5-.54.88-.91,1.16-.37.28-.71.45-1.04.51-.32.06-.57.02-.74-.12-.18-.15-.2-.41-.07-.77l3.54-8.62c.52-1.23.64-2.14.37-2.71-.27-.57-.93-.86-1.98-.86-.18,0-.36,0-.54.03-.18.02-.34.05-.49.08-.16.04-.32.06-.47.08l-.55,1.19h.28c.4,0,.67.12.79.35.12.23.1.53-.07.9l-1.02,2.49c-.37-.52-.91-.77-1.63-.77-1.27,0-2.49.44-3.66,1.33-1.17.88-2.16,2.27-2.97,4.14-.25.58-.43,1.13-.52,1.65-.24.47-.53.84-.89,1.11-.37.28-.71.45-1.04.51-.32.06-.58.02-.76-.12-.18-.15-.2-.41-.05-.77.24-.59.47-1.16.69-1.71.2-.48.4-.96.59-1.44.19-.48.35-.86.46-1.13.5-1.22.62-2.11.36-2.69-.26-.58-.91-.87-1.96-.87-.19,0-.36,0-.54.03-.18.02-.34.05-.48.08-.17.04-.32.07-.47.11l-.58,1.19h.28c.42,0,.69.11.8.35.11.23.09.53-.06.9-.09.2-.23.53-.4.97-.18.44-.36.91-.57,1.41-.2.5-.4.97-.59,1.42-.19.45-.34.79-.43,1.01-.48,1.16-.54,2.04-.19,2.63.35.59.98.88,1.88.88.44,0,.89-.08,1.34-.25.45-.17.88-.39,1.27-.66.4-.28.76-.6,1.08-.98.08-.09.15-.18.22-.28.03.2.07.39.13.57.17.5.45.89.84,1.17.4.28.91.43,1.53.43.5,0,1.02-.12,1.57-.37.55-.25,1.1-.59,1.63-1.04.09.48.31.83.66,1.06.35.23.81.35,1.38.35.44,0,.89-.08,1.34-.25.45-.17.87-.39,1.27-.66.39-.28.75-.6,1.08-.98.32-.38.58-.79.76-1.23v-.02c.47-.97,1.08-1.57,1.82-1.8.77-.24,1.53-.06,2.27.53.5.41.82.93.98,1.56.16.64.12,1.32-.12,2.06-.24.74-.68,1.48-1.33,2.23-.65.75-1.51,1.44-2.58,2.09-1.08.65-2.39,1.19-3.94,1.65-1.55.45-3.34.74-5.39.87-4.03.26-7.98.33-11.83.22-3.85-.11-7.71-.31-11.57-.61-3.48-.27-7-.58-10.55-.93.55-.39,1.08-.8,1.61-1.25,1.53-1.29,3.01-2.76,4.45-4.41,1.44-1.65,2.86-3.32,4.28-5.02,1.07.46,2.12.82,3.15,1.08,1.03.26,2.03.43,2.99.52l-.17.3c-.94,1.55-1.57,2.87-1.89,3.98-.32,1.11-.4,2.01-.22,2.71.18.7.56,1.21,1.16,1.53.6.32,1.34.48,2.22.48.57,0,1.12-.11,1.65-.33.52-.22,1.01-.52,1.45-.88.44-.37.83-.81,1.16-1.31.33-.51.6-1.05.8-1.62l-.72-1.02c-.15.37-.34.69-.57.97-.23.28-.47.51-.72.7-.25.19-.5.34-.75.44-.25.1-.47.15-.65.15-.28,0-.51-.1-.7-.29-.19-.19-.26-.46-.21-.79.06-.35.21-.78.46-1.29.25-.51.54-1.05.88-1.63.34-.58.72-1.19,1.13-1.84.41-.64.82-1.3,1.23-1.96.31-.52.68-1.12,1.09-1.81.41-.69.86-1.42,1.33-2.18.47-.76.95-1.55,1.45-2.36.5-.81.99-1.59,1.46-2.35,1.11-1.79,2.26-3.65,3.46-5.58l-2.35-.03c-2.21,0-4.27.3-6.19.9-1.92.6-3.72,1.4-5.4,2.4-1.69,1-3.26,2.17-4.73,3.5-1.47,1.33-2.86,2.71-4.19,4.14-.94-.42-1.9-.82-2.89-1.2-.99-.38-1.96-.66-2.92-.84-.96-.18-1.88-.23-2.78-.14-.89.09-1.72.4-2.47.91-.87.61-1.46,1.34-1.78,2.18-.32.85-.42,1.7-.29,2.56.13.86.44,1.67.94,2.43.5.77,1.12,1.37,1.88,1.81l1.13-.36c-.35-.37-.6-.8-.76-1.3-.16-.5-.19-1-.1-1.52.09-.52.31-1.02.66-1.52.35-.5.86-.93,1.52-1.3.94-.53,1.97-.78,3.08-.75,1.11.04,2.24.23,3.39.58-1,1.14-1.95,2.28-2.87,3.43-.92,1.14-1.82,2.23-2.71,3.26-.88,1.03-1.75,1.99-2.6,2.89-.85.89-1.69,1.67-2.53,2.32-.11.08-.22.16-.32.24-2.64-.25-5.34-.49-8.1-.71-.03-.12-.05-.24-.07-.36-.13-.82-.05-1.69.23-2.6.29-.91.76-1.72,1.42-2.42-.07.53,0,.98.23,1.33.23.35.6.52,1.12.52s1.02-.12,1.46-.36c.44-.24.81-.54,1.09-.9.29-.36.49-.75.62-1.16.13-.41.16-.8.1-1.16-.06-.36-.24-.66-.53-.9-.29-.24-.69-.36-1.23-.36-1.14,0-2.16.31-3.05.93-.89.62-1.62,1.4-2.17,2.34-.55.94-.9,1.95-1.05,3.03-.09.67-.08,1.32.02,1.93-3.92-.3-7.98-.53-12.21-.69-4.57-.17-9.41-.19-14.51-.04-3.92.11-7.48.53-10.67,1.26-3.19.73-6,1.66-8.43,2.81-2.43,1.14-4.49,2.44-6.16,3.9-1.68,1.46-2.97,2.97-3.87,4.53,1.75-.63,3.37-.96,4.86-1.01,1.49-.05,2.82.1,3.98.43,1.16.33,2.13.81,2.9,1.45.77.64,1.32,1.33,1.63,2.09,1.94-1.79,4.21-3.27,6.81-4.46,2.61-1.19,5.46-2.15,8.57-2.87,3.1-.73,6.4-1.26,9.89-1.6,3.49-.34,7.08-.55,10.76-.62,3.68-.07,7.42-.06,11.21.04,3.79.1,7.53.23,11.22.4,3.69.17,7.29.32,10.78.47,3.49.15,6.79.22,9.91.22,3.57,0,6.72-.17,9.45-.53,2.73-.35,5.09-.82,7.09-1.42,2-.6,3.66-1.29,4.99-2.07,1.33-.78,2.38-1.6,3.16-2.45.78-.85,1.32-1.71,1.6-2.58.29-.88.39-1.7.3-2.47ZM125.78,18.94c-.25.62-.48,1.18-.7,1.7-.22.52-.41.96-.57,1.34-.16.38-.26.63-.32.76-.06.15-.11.28-.15.39-.05.11-.09.23-.12.36-.37.31-.73.56-1.08.75-.35.18-.68.28-1,.28s-.54-.1-.68-.3c-.14-.2-.2-.48-.18-.83.02-.35.11-.76.26-1.23.16-.47.36-.97.62-1.51.72-1.44,1.36-2.45,1.93-3.03.57-.58,1.2-.87,1.88-.87.35,0,.63.13.83.39-.24.59-.48,1.19-.73,1.81ZM103.03,14.98c1.15-1.25,2.33-2.4,3.54-3.43,1.21-1.03,2.46-1.91,3.74-2.64,1.29-.73,2.63-1.23,4.04-1.51-.48.68-1.08,1.54-1.8,2.57-.72,1.03-1.48,2.14-2.29,3.32-.81,1.18-1.63,2.37-2.45,3.58-.82,1.21-1.56,2.34-2.23,3.39-1.82-.06-3.81-.52-5.97-1.38,1.12-1.34,2.26-2.64,3.41-3.9Z"/>
  </g>
</svg>