<?xml version="1.0" encoding="UTF-8"?>
<svg id="Layer_1" xmlns="http://www.w3.org/2000/svg" viewBox="0 0 667.21 561.25">
  <defs>
    <style>
      .cls-1 {
        fill: #48842a;
      }

      .cls-2 {
        fill: #fff;
      }

      .cls-3 {
        fill: #c29261;
      }
    </style>
  </defs>
  <path class="cls-3" d="M333.6,561.25c-2.5,0-5-.94-6.92-2.84L2.94,239.26c-2.79-2.75-3.69-6.89-2.28-10.55,25.58-66.58,70.11-123.46,128.79-164.51C189.48,22.2,260.08,0,333.6,0s144.12,22.2,204.16,64.2c58.68,41.05,103.21,97.93,128.79,164.51,1.41,3.66.51,7.8-2.28,10.55l-323.75,319.15c-1.92,1.89-4.42,2.84-6.92,2.84Z"/>
  <path class="cls-1" d="M657.35,232.24l-323.75,319.15L9.85,232.24c5.67-14.75,12.31-29.01,19.86-42.7.65-1.2,1.32-2.39,1.98-3.57C91.24,80.82,204.14,9.86,333.6,9.86s242.37,70.96,301.91,176.12c.67,1.18,1.34,2.37,1.99,3.56,7.54,13.69,14.19,27.95,19.85,42.7Z"/>
  <path class="cls-3" d="M333.6,500.66l-182.04-179.45c28.1-73.13,99.01-125.04,182.04-125.04s153.94,51.91,182.04,125.04l-182.04,179.45Z"/>
  <rect class="cls-1" x="268.8" y="315.46" width="129.61" height="129.61" transform="translate(366.6 -124.52) rotate(45)"/>
  <circle class="cls-3" cx="333.6" cy="477.9" r="30.2"/>
  <circle class="cls-3" cx="333.6" cy="379.82" r="19.81" transform="translate(-117.6 607.78) rotate(-75.51)"/>
  <g>
    <path class="cls-3" d="M253.94,394.28c7.74-7.74,7.74-20.28,0-28.01l-14.01,14.01,14.01,14.01Z"/>
    <path class="cls-3" d="M413.26,394.28c-7.74-7.74-7.74-20.28,0-28.01l14.01,14.01-14.01,14.01Z"/>
  </g>
  <path class="cls-3" d="M319.6,300.11c7.74,7.74,20.28,7.74,28.01,0l-14.01-14.01-14.01,14.01Z"/>
  <rect class="cls-2" x="228.25" y="375.26" width="10.03" height="10.03" transform="translate(337.21 -53.56) rotate(45)"/>
  <rect class="cls-2" x="429.28" y="375.26" width="10.03" height="10.03" transform="translate(396.09 -195.71) rotate(45)"/>
  <rect class="cls-2" x="328.59" y="274.57" width="10.03" height="10.03" transform="translate(767.19 241.38) rotate(135)"/>
  <polygon class="cls-2" points="328.59 476.22 338.62 476.22 338.62 480.33 333.6 485.49 328.59 480.33 328.59 476.22"/>
  <path class="cls-2" d="M637.5,189.54l-302.51,298.22c-.39.37-.89.56-1.39.56s-1-.19-1.38-.56L29.71,189.54c.65-1.2,1.32-2.39,1.98-3.57l301.91,297.61,301.91-297.6c.67,1.18,1.34,2.37,1.99,3.56Z"/>
  <path class="cls-2" d="M216.23,420.23l-25.1-25.1,10.08-10.08,25.1,25.1-10.08,10.08ZM193.92,395.14l22.31,22.31,7.3-7.3-22.31-22.31-7.3,7.3Z"/>
  <path class="cls-2" d="M451.52,420.23l-10.09-10.08,25.1-25.1,10.09,10.08-25.1,25.1ZM444.22,410.15l7.3,7.3,22.31-22.31-7.3-7.3-22.31,22.31Z"/>
  <path class="cls-2" d="M350.19,489.38h-10.32v-19.45h10.32v19.45ZM341.35,487.9h7.37v-16.49h-7.37v16.49Z"/>
  <path class="cls-2" d="M327.43,489.38h-10.32v-19.45h10.32v19.45ZM318.58,487.9h7.37v-16.49h-7.37v16.49Z"/>
  <path class="cls-2" d="M338.77,503.69h-10.32v-14.18h10.32v14.18ZM329.92,502.21h7.37v-11.22h-7.37v11.22Z"/>
</svg>